<?xml version="1.0" encoding="UTF-8" standalone="no"?>
<!-- Generator: Adobe Illustrator 16.0.0, SVG Export Plug-In . SVG Version: 6.00 Build 0)  -->

<svg
   xmlns:dc="http://purl.org/dc/elements/1.1/"
   xmlns:cc="http://creativecommons.org/ns#"
   xmlns:rdf="http://www.w3.org/1999/02/22-rdf-syntax-ns#"
   xmlns:svg="http://www.w3.org/2000/svg"
   xmlns="http://www.w3.org/2000/svg"
   xmlns:sodipodi="http://sodipodi.sourceforge.net/DTD/sodipodi-0.dtd"
   xmlns:inkscape="http://www.inkscape.org/namespaces/inkscape"
   version="1.1"
   id="Capa_1"
   x="0px"
   y="0px"
   width="438.533px"
   height="438.533px"
   viewBox="0 0 438.533 438.533"
   style="enable-background:new 0 0 438.533 438.533;"
   xml:space="preserve"
   sodipodi:docname="circular-shape-silhouette.svg"
   inkscape:version="0.92.4 (5da689c313, 2019-01-14)"><metadata
   id="metadata3793"><rdf:RDF><cc:Work
       rdf:about=""><dc:format>image/svg+xml</dc:format><dc:type
         rdf:resource="http://purl.org/dc/dcmitype/StillImage" /></cc:Work></rdf:RDF></metadata><defs
   id="defs3791" /><sodipodi:namedview
   pagecolor="#ffffff"
   bordercolor="#666666"
   borderopacity="1"
   objecttolerance="10"
   gridtolerance="10"
   guidetolerance="10"
   inkscape:pageopacity="0"
   inkscape:pageshadow="2"
   inkscape:window-width="1920"
   inkscape:window-height="1017"
   id="namedview3789"
   showgrid="false"
   inkscape:zoom="1.9382806"
   inkscape:cx="135.42931"
   inkscape:cy="219.26649"
   inkscape:window-x="1672"
   inkscape:window-y="-8"
   inkscape:window-maximized="1"
   inkscape:current-layer="Capa_1" />
<g
   id="g3756">
	<path
   d="M409.133,109.203c-19.608-33.592-46.205-60.189-79.798-79.796C295.736,9.801,259.058,0,219.273,0   c-39.781,0-76.47,9.801-110.063,29.407c-33.595,19.604-60.192,46.201-79.8,79.796C9.801,142.8,0,179.489,0,219.267   c0,39.78,9.804,76.463,29.407,110.062c19.607,33.592,46.204,60.189,79.799,79.798c33.597,19.605,70.283,29.407,110.063,29.407   s76.47-9.802,110.065-29.407c33.593-19.602,60.189-46.206,79.795-79.798c19.603-33.596,29.403-70.284,29.403-110.062   C438.533,179.485,428.732,142.795,409.133,109.203z"
   id="path3754" />
</g>
<g
   id="g3758">
</g>
<g
   id="g3760">
</g>
<g
   id="g3762">
</g>
<g
   id="g3764">
</g>
<g
   id="g3766">
</g>
<g
   id="g3768">
</g>
<g
   id="g3770">
</g>
<g
   id="g3772">
</g>
<g
   id="g3774">
</g>
<g
   id="g3776">
</g>
<g
   id="g3778">
</g>
<g
   id="g3780">
</g>
<g
   id="g3782">
</g>
<g
   id="g3784">
</g>
<g
   id="g3786">
</g>
<path
   style="stroke-width:0.51592118;fill:#7f46bc;fill-opacity:1"
   d="m 209.20603,437.97797 c -30.64469,-1.18938 -60.27572,-8.7871 -87.52764,-22.44306 C 78.6468,393.97174 44.395823,359.56719 22.548278,315.96031 2.0936377,275.13362 -4.6299435,225.50604 3.9262341,178.50872 14.23992,121.85777 48.83998,69.502805 97.251139,37.294441 131.97807,14.190315 169.18376,2.0251042 209.49797,0.59289691 c 23.96784,-0.85148426 44.51529,1.23805989 65.39684,6.65043969 46.77972,12.1250424 89.63501,40.7730154 118.82362,79.4314194 27.59196,36.543734 42.65484,78.340774 44.21581,122.691704 0.84711,24.06839 -1.23704,44.69146 -6.60539,65.36156 -15.81308,60.88613 -57.61435,112.26728 -114.60192,140.86605 -26.21637,13.15648 -57.12325,21.26834 -84.56241,22.19436 -4.11447,0.13886 -8.87384,0.3194 -10.57638,0.40122 -1.70254,0.0818 -7.27449,-0.0135 -12.38211,-0.21168 z"
   id="path3795"
   inkscape:connector-curvature="0" /></svg>